<svg width="141" height="141" viewBox="0 0 141 141" fill="none" xmlns="http://www.w3.org/2000/svg">
<rect x="10" y="10" width="121" height="121" rx="60.5" fill="white"/>
<rect x="10" y="10" width="121" height="121" rx="60.5" stroke="#5F86FB" stroke-width="20"/>
<path d="M60.8618 82.9758L94.2939 49.5438C95.0828 48.7548 96.0033 48.3604 97.0552 48.3604C98.1072 48.3604 99.0276 48.7548 99.8166 49.5438C100.606 50.3327 101 51.2703 101 52.3564C101 53.4425 100.606 54.3788 99.8166 55.1651L63.6232 91.4571C62.8342 92.2461 61.9138 92.6405 60.8618 92.6405C59.8099 92.6405 58.8894 92.2461 58.1005 91.4571L41.1379 74.4945C40.349 73.7056 39.9703 72.7694 40.0018 71.6859C40.0334 70.6024 40.445 69.6648 41.2365 68.8732C42.0281 68.0816 42.9657 67.6872 44.0492 67.6898C45.1327 67.6924 46.0689 68.0869 46.8579 68.8732L60.8618 82.9758Z" fill="#4A61FD"/>
</svg>
