<svg width="72" height="72" viewBox="0 0 72 72" fill="none" xmlns="http://www.w3.org/2000/svg">
<rect width="72" height="72" rx="20" fill="#5F86FB"/>
<path d="M42.1929 52H47.872C48.967 51.9995 50.017 51.5598 50.7911 50.7777C51.5651 49.9955 52 48.9349 52 47.8291V35.5596C51.9983 34.6661 51.8077 33.7833 51.4409 32.9702C51.0741 32.1571 50.5395 31.4325 49.8729 30.845L38.7106 21.0241C37.9589 20.3637 36.9963 20 36 20C35.0037 20 34.0411 20.3637 33.2894 21.0241L22.1271 30.8431C21.4603 31.4308 20.9256 32.1557 20.5587 32.9691C20.1919 33.7826 20.0014 34.6658 20 35.5596V47.8291C20 50.1332 21.8485 52 24.1299 52H30.3228M42.1929 52V39.4891C42.1929 37.7629 40.8075 36.3619 39.0965 36.3619H33.4212C31.7101 36.3619 30.3247 37.7629 30.3247 39.4891L30.3228 52M42.1948 52H30.3228H42.1948Z" fill="#F8F8F8"/>
<path d="M30.3228 52H24.1299C21.8485 52 20 50.1332 20 47.8291V35.5596C20.0014 34.6658 20.1919 33.7826 20.5587 32.9691C20.9256 32.1557 21.4603 31.4308 22.1271 30.8431L33.2894 21.0241C34.0411 20.3637 35.0037 20 36 20C36.9963 20 37.9589 20.3637 38.7106 21.0241L49.8729 30.845C50.5395 31.4325 51.0741 32.1571 51.4409 32.9702C51.8077 33.7833 51.9983 34.6661 52 35.5596V47.8291C52 48.9349 51.5651 49.9955 50.7911 50.7777C50.017 51.5598 48.967 51.9995 47.872 52H42.1929V39.4891C42.1929 37.7629 40.8075 36.3619 39.0965 36.3619H33.4212C31.7101 36.3619 30.3247 37.7629 30.3247 39.4891L30.3228 52ZM30.3228 52H42.1948" stroke="#5F86FB" stroke-width="2" stroke-linejoin="round"/>
</svg>
