<svg width="40" height="40" viewBox="0 0 40 40" fill="none" xmlns="http://www.w3.org/2000/svg">
<rect width="40" height="39.9993" rx="19.9996" fill="#F8F8F8"/>
<path fill-rule="evenodd" clip-rule="evenodd" d="M26.492 21.3226C25.6562 21.3226 25.8404 22.5851 26.492 22.6018C26.9937 22.6018 27.2696 22.4601 27.2612 22.0251C27.2696 21.7993 27.2862 21.2726 26.492 21.3226ZM26.1079 14.9949C26.1079 14.7691 26.1079 14.2507 25.3303 14.2924C24.5528 14.3341 24.6695 15.5633 25.3303 15.5799C25.857 15.6216 26.1162 15.4633 26.1079 14.9949ZM16.4276 12.2857C15.5909 12.5282 16.0759 13.674 16.7276 13.5399C17.2209 13.4399 17.4551 13.214 17.3468 12.7957C17.2884 12.579 17.1893 12.0607 16.4276 12.2857ZM13.9275 18.74C13.0916 18.74 13.2675 20.0017 13.9275 20.0267C14.4292 20.0267 14.7134 19.8767 14.6967 19.4417C14.705 19.2167 14.7217 18.6892 13.9275 18.74Z" fill="#4A61FD"/>
<path fill-rule="evenodd" clip-rule="evenodd" d="M19.3869 14.7441C19.7536 14.4091 20.0886 14.0582 20.4569 13.699C20.4916 13.6743 20.521 13.6428 20.5433 13.6064C20.5655 13.5701 20.5802 13.5296 20.5864 13.4874C20.5926 13.4452 20.5903 13.4022 20.5795 13.361C20.5687 13.3197 20.5497 13.2811 20.5236 13.2474C20.5236 13.2474 20.4653 13.2474 20.4319 13.189C19.8877 12.6457 19.3444 12.0773 18.7594 11.559C18.3671 11.1917 17.9463 10.8601 17.4968 10.5639C17.1629 10.352 16.8033 10.1835 16.4268 10.0623C16.1185 9.97892 15.7918 9.97892 15.4826 10.0623C15.3051 10.1002 15.1373 10.1739 14.9893 10.2789C14.7643 10.4473 14.5542 10.6973 14.3792 10.8481C14.1126 11.0776 13.859 11.3201 13.6184 11.5756C13.4428 11.764 13.2867 11.9673 13.15 12.1857C13.0478 12.359 12.97 12.5429 12.9167 12.7373C12.8652 12.9006 12.8652 13.0758 12.9167 13.239C12.9584 13.3449 13.0309 13.4349 13.125 13.4974C13.2662 13.5707 13.4112 13.6351 13.5601 13.6907L14.4876 14.0749C14.8081 14.2365 15.1176 14.4177 15.4159 14.6182C16.076 15.0449 16.661 15.5299 17.2968 15.9724C17.5802 16.1983 18.0235 15.9058 18.0235 15.9058C18.2577 15.6808 19.3361 14.7857 19.3869 14.7441ZM18.1244 14.4166C17.8685 14.7016 17.6577 15.0224 17.4968 15.3699C16.9877 14.9016 16.4693 14.4082 15.926 13.9657C15.6315 13.7087 15.3184 13.4739 14.9893 13.2632L14.0534 12.7865C14.1578 12.6293 14.2745 12.4818 14.4034 12.344C14.6134 12.1182 14.8559 11.9006 15.0809 11.6998L15.7418 11.0898C15.9178 11.0291 16.1091 11.0291 16.2851 11.0898C16.529 11.1715 16.7632 11.2745 16.9877 11.399C17.4277 11.6384 17.8445 11.9182 18.2327 12.2348C18.726 12.6115 19.1861 13.0707 19.6544 13.439C19.3869 13.5807 19.1019 13.7057 18.8177 13.8732C18.5656 14.0258 18.3328 14.2082 18.1244 14.4166ZM23.4328 17.7783C23.4662 17.8582 23.5292 17.9219 23.6087 17.9561C23.6881 17.9904 23.7778 17.9923 23.8587 17.9617C23.9017 17.9447 23.9407 17.919 23.9733 17.8861C24.0058 17.8532 24.0311 17.814 24.0477 17.7708C24.0642 17.7276 24.0716 17.6814 24.0693 17.6352C24.0671 17.5891 24.0552 17.5438 24.0345 17.5025C23.9605 17.1324 23.8657 16.7668 23.7504 16.4074C23.7031 16.2528 23.6446 16.1019 23.5753 15.9558C23.5024 15.812 23.4211 15.6726 23.332 15.5383C23.1509 15.3032 22.9584 15.0771 22.7553 14.8607C23.2987 14.6107 23.8337 14.3507 24.3854 14.1165C24.9371 13.8832 25.6062 13.5982 26.2329 13.3724L26.8688 13.189V13.2307C26.9632 13.444 27.0466 13.6613 27.1188 13.8824L27.6371 14.9949C27.5682 15.0521 27.496 15.1049 27.4205 15.1532C27.0916 15.3227 26.7543 15.4733 26.4088 15.6049C25.9893 15.7783 25.5851 15.9816 25.1962 16.2149C24.7988 16.456 24.4264 16.736 24.0845 17.0508C24.0256 17.1074 23.9902 17.1841 23.9853 17.2656C23.9804 17.3472 24.0064 17.4275 24.0581 17.4908C24.1098 17.554 24.1834 17.5955 24.2643 17.6069C24.3451 17.6183 24.4274 17.5989 24.4945 17.5525C24.823 17.2986 25.1792 17.0828 25.5562 16.9091C25.9313 16.7247 26.3185 16.5713 26.7179 16.4491C27.1151 16.3425 27.5035 16.2054 27.8796 16.0391C28.1863 15.8933 28.4547 15.6791 28.6655 15.4124C28.7566 15.2934 28.7984 15.1439 28.7822 14.9949C28.7359 14.819 28.6658 14.6502 28.5738 14.4932L28.1555 13.5399C28.0638 13.3149 27.9805 13.0632 27.8721 12.829C27.7793 12.6351 27.6641 12.4527 27.5288 12.2857C27.4692 12.2034 27.3866 12.1406 27.2914 12.105C27.1963 12.0694 27.0927 12.0627 26.9938 12.0857C26.9049 12.1007 26.8188 12.1229 26.7354 12.1523L25.8571 12.4865C25.3652 12.7268 24.88 12.9805 24.402 13.2474C23.692 13.649 22.9978 14.0832 22.3045 14.4849C22.2295 14.5266 22.0195 14.8099 22.1203 14.9866C22.212 15.3532 23.2487 17.5025 23.4328 17.7783ZM22.597 21.9001C22.2045 22.0354 21.8434 22.2486 21.5353 22.5268C21.4701 22.5874 21.4112 22.6544 21.3595 22.7268C21.3742 21.6689 21.2962 20.6118 21.1261 19.5675C21.0481 19.1971 20.9586 18.8291 20.8578 18.4642L21.6103 17.9117L22.0445 17.595C22.26 17.4222 22.4525 17.2269 22.622 17.0091C22.7887 16.4908 22.472 16.1733 22.2286 16.2566C22.1111 16.2953 21.9966 16.3426 21.8861 16.3983C21.7052 16.4923 21.5343 16.6046 21.3761 16.7333C21.2202 16.8609 21.0722 16.9978 20.9328 17.1433C20.7994 17.285 20.6994 17.4516 20.5819 17.6025C20.3253 16.8191 19.9736 16.0691 19.5369 15.3707C19.2027 15.1291 18.826 15.6124 19.0852 16.0566C19.6157 17.2217 19.9464 18.4677 20.0636 19.7425C20.1552 20.3867 20.1802 21.0384 20.2303 21.6993C20.1469 21.5993 20.0886 21.4901 20.0052 21.3901C19.8137 21.18 19.607 20.9842 19.3869 20.8042C19.1607 20.631 18.9201 20.4774 18.6677 20.3451C18.3519 20.1632 18.0017 20.0491 17.6393 20.0101C17.1793 19.8934 16.9793 20.1351 17.3218 20.6876C17.6477 20.9459 17.7818 20.9709 18.1577 21.2476C18.5335 21.5234 18.7844 21.7076 19.0852 21.9501C19.5503 22.313 19.9638 22.7374 20.3144 23.2118V27.8936C20.3118 27.9796 20.3426 28.0632 20.4002 28.127C20.4578 28.1908 20.5378 28.2299 20.6236 28.2361C20.666 28.2385 20.7085 28.2323 20.7484 28.2179C20.7884 28.2035 20.8251 28.1812 20.8562 28.1524C20.8874 28.1235 20.9125 28.0887 20.9299 28.05C20.9474 28.0113 20.9568 27.9694 20.9578 27.927C21.0919 26.5644 21.2253 25.2019 21.2928 23.8393L21.6353 23.5968C21.8353 23.4718 22.0536 23.3793 22.262 23.2626L22.8645 22.911L23.382 22.611C23.6412 22.4176 23.382 22.0751 23.082 21.8576C22.9209 21.8099 22.7476 21.8256 22.597 21.9001ZM29.3422 20.9134C29.3422 20.6792 27.6121 19.7675 27.2613 19.6509C26.7375 19.473 26.1809 19.4133 25.6312 19.4759C25.0217 19.5552 24.4273 19.7239 23.867 19.9767C23.8216 19.9883 23.7803 20.0123 23.7478 20.0462C23.7154 20.0801 23.6932 20.1225 23.6837 20.1684C23.6218 20.1906 23.5695 20.2338 23.5359 20.2903C23.5023 20.3469 23.4894 20.4134 23.4995 20.4784C23.4995 20.8884 23.6329 22.5101 23.6329 22.5185C23.7079 22.8943 23.8254 23.2451 23.867 23.6135C23.8675 23.6745 23.886 23.7339 23.9203 23.7844C23.9546 23.8348 24.003 23.8739 24.0595 23.8968C24.0851 23.9191 24.1129 23.936 24.1429 23.9477H24.2095C24.7371 23.9259 25.2647 23.9877 25.7729 24.131C26.1551 24.2421 26.5288 24.376 26.8938 24.5327C27.2696 24.6827 27.6463 24.8252 28.0138 24.9927C28.1251 25.0434 28.2499 25.0562 28.3691 25.0291C28.4884 25.002 28.5954 24.9365 28.6738 24.8427C28.805 24.6592 28.9173 24.463 29.0088 24.2568C29.1072 24.0029 29.1766 23.741 29.2172 23.471C29.265 23.0965 29.2872 22.7204 29.2839 22.3426L29.3422 20.9134ZM28.5072 22.2843C28.4849 22.6187 28.4377 22.9504 28.3655 23.2793C28.3097 23.4722 28.2366 23.6596 28.1472 23.8393C27.9555 23.756 27.7546 23.681 27.5538 23.6135C27.1963 23.4979 26.8301 23.4112 26.4588 23.3543C25.8358 23.254 25.2008 23.254 24.5779 23.3543C24.6445 23.0515 24.6807 22.7449 24.6862 22.4343C24.7029 22.2648 24.7029 22.0948 24.6862 21.9243C24.6668 21.7569 24.6305 21.5919 24.5779 21.4318C24.4642 21.1153 24.3331 20.8054 24.1854 20.5034C24.7082 20.4622 25.2334 20.4622 25.7562 20.5034C26.1118 20.5162 26.4657 20.5495 26.8179 20.6034C27.4088 20.6531 27.9807 20.8363 28.4905 21.1393C28.5511 21.1753 28.62 21.1954 28.6905 21.1976L28.5072 22.2843ZM17.3052 18.8817C17.3169 18.8466 17.3214 18.8096 17.3184 18.7728C17.3155 18.7359 17.3051 18.7001 17.288 18.6673C17.2709 18.6346 17.2474 18.6056 17.2188 18.5822C17.1903 18.5587 17.1573 18.5413 17.1218 18.5308C17.0874 18.5159 17.0502 18.5082 17.0127 18.5082C16.9751 18.5082 16.938 18.5159 16.9035 18.5308C16.3783 18.1922 15.8178 17.9119 15.2318 17.695C14.621 17.4487 13.9748 17.3018 13.3175 17.26C12.9674 17.237 12.6158 17.2623 12.2725 17.335C11.9725 17.4025 11.7017 17.56 11.495 17.7867C11.4142 17.8908 11.3533 18.01 11.32 18.1375C11.2783 18.2875 11.27 18.4633 11.2367 18.6058L10.985 19.6759C10.91 19.9517 10.8016 20.2442 10.735 20.5117C10.6766 20.7501 10.6516 20.9951 10.6591 21.2393C10.6551 21.3604 10.6952 21.479 10.772 21.5728C10.8488 21.6666 10.957 21.7293 11.0766 21.7493C11.1911 21.767 11.3055 21.767 11.42 21.7493C11.8542 21.7493 12.8742 21.5909 13.2342 21.6159C13.5926 21.6409 13.9442 21.6159 14.2867 21.6909C14.629 21.7215 14.9662 21.7798 15.2984 21.8659C15.5373 21.9482 15.7826 22.0009 16.0343 22.0243C16.1847 22.0383 16.3346 21.9935 16.4526 21.8993C16.5453 21.8312 16.6174 21.739 16.661 21.6326C16.7143 21.4087 16.756 21.1829 16.786 20.9551L17.3052 18.8817ZM16.0585 20.7626C15.9835 20.9967 16.2001 21.3143 15.5401 21.0884C15.2446 20.9892 14.9432 20.9085 14.6376 20.8467C14.2017 20.7518 13.7606 20.682 13.3167 20.6376C12.8167 20.632 12.3178 20.6515 11.82 20.6959C11.8783 20.4451 11.9617 20.1942 12.0292 19.9601L12.2542 18.7733C12.3217 18.2967 12.33 18.2883 12.6475 18.2217C12.867 18.1722 13.0918 18.1498 13.3167 18.155C13.9001 18.14 14.4834 18.2242 15.0384 18.405C15.6064 18.5991 16.1505 18.8572 16.6601 19.1742L16.0585 20.7626Z" fill="#4A61FD"/>
<path fill-rule="evenodd" clip-rule="evenodd" d="M23.0986 26.2219C22.6818 26.0619 22.2407 25.9742 21.7944 25.9628C21.7361 25.9535 21.6763 25.9603 21.6215 25.9823C21.5667 26.0043 21.5189 26.0407 21.4831 26.0878C21.4474 26.1348 21.4251 26.1906 21.4186 26.2493C21.412 26.308 21.4215 26.3674 21.4461 26.4211C21.4758 26.4859 21.526 26.5391 21.589 26.5725C21.6519 26.6059 21.7241 26.6177 21.7944 26.6061C22.1636 26.6436 22.5244 26.7395 22.8644 26.8903C23.1995 27.0386 23.5078 27.242 23.7753 27.492C23.8503 27.5675 23.9086 27.6539 23.9503 27.7512C23.9721 27.7801 23.984 27.8153 23.984 27.8516C23.984 27.8878 23.9721 27.9231 23.9503 27.952C23.6156 28.2796 23.2006 28.5133 22.7469 28.6295C22.0109 28.8566 21.2437 28.9663 20.4735 28.9545C19.9112 28.9605 19.35 28.9018 18.801 28.7795C18.4504 28.7121 18.1175 28.5728 17.8235 28.3703L17.5393 28.0437C17.4919 27.979 17.4584 27.9052 17.441 27.827C17.4237 27.7487 17.4228 27.6677 17.4385 27.589C17.4542 27.5104 17.4861 27.4359 17.5321 27.3703C17.5782 27.3046 17.6374 27.2493 17.706 27.2078C18.2864 26.8159 18.9632 26.5905 19.6627 26.5561C19.7 26.5561 19.737 26.5488 19.7714 26.5345C19.8059 26.5202 19.8372 26.4993 19.8636 26.4729C19.89 26.4465 19.9109 26.4152 19.9252 26.3807C19.9395 26.3462 19.9469 26.3093 19.9469 26.272C19.9469 26.2346 19.9395 26.1977 19.9252 26.1632C19.9109 26.1287 19.89 26.0974 19.8636 26.071C19.8372 26.0446 19.8059 26.0237 19.7714 26.0094C19.737 25.9951 19.7 25.9878 19.6627 25.9878C18.8203 25.9672 17.988 26.1751 17.2543 26.5895C17.0946 26.6746 16.954 26.7914 16.841 26.9328C16.7281 27.0742 16.6453 27.2372 16.5976 27.4117C16.5499 27.5863 16.5384 27.7688 16.5638 27.9479C16.5891 28.1271 16.6508 28.2992 16.7451 28.4537C16.7979 28.5665 16.8618 28.6723 16.9368 28.7712C17.0151 28.8812 17.1043 28.9815 17.2043 29.072C17.571 29.3887 18.001 29.6195 18.4668 29.7496C19.1017 29.9208 19.7569 30.0049 20.4144 29.9996C21.3064 29.9966 22.1914 29.8413 23.0311 29.5404C23.6428 29.3379 24.1866 28.9705 24.6028 28.4787C24.6962 28.363 24.7626 28.2279 24.7972 28.0833C24.8318 27.9387 24.8337 27.7883 24.8028 27.6428C24.7269 27.3128 24.5416 27.0182 24.277 26.807C23.9227 26.5425 23.5235 26.3443 23.0986 26.2219Z" fill="#4A61FD"/>
</svg>
