<svg width="44" height="42" viewBox="0 0 44 42" fill="none" xmlns="http://www.w3.org/2000/svg">
<path d="M34.1732 12.1656C34.1732 5.72742 32.1362 3.83502 29.6499 2.9464C24.5034 1.10595 13.5149 -0.308836 7.26295 2.9464C5.5546 3.83502 1.77658 5.3198 1.42317 9.47269C0.771669 17.1112 0.937649 24.7835 1.47962 32.4355C1.79916 36.9362 5.47782 39.3751 8.52305 39.9373C16.664 41.4391 25.7714 41.1929 34.5751 40.1666C38.4683 39.7127 40.6836 36.7657 41.2166 34.5549C42.5139 29.1746 43.1643 21.2674 42.5331 18.7506C40.9117 12.2864 37.4623 12.3373 34.1732 12.1656ZM34.1732 12.1656L11.7862 12.3373" stroke="#5F86FB" stroke-width="2" stroke-linecap="round" stroke-linejoin="round"/>
<path d="M32.17 25.2207L32.2265 26.71C32.17 28.2569 35.204 28.3472 35.204 26.71V25.0502C39.2191 20.0787 28.6043 19.0738 32.17 25.2207Z" stroke="#5F86FB" stroke-width="2" stroke-linecap="round" stroke-linejoin="round"/>
</svg>
