<svg width="40" height="40" viewBox="0 0 40 40" fill="none" xmlns="http://www.w3.org/2000/svg">
<rect width="40" height="39.9993" rx="19.9996" fill="#4A61FD"/>
<path d="M20.0021 16.8428C18.839 16.8428 17.8969 17.5502 17.8969 18.4217C17.8969 19.2944 18.839 20.0007 20.0021 20.0007C21.1653 20.0007 22.1074 20.7081 22.1074 21.5796C22.1074 22.4523 21.1642 23.1586 20.0021 23.1586M20.0021 16.8428C20.9179 16.8428 21.699 17.2828 21.9874 17.8954M20.0021 16.8428V15.7902M20.0021 23.1586C19.0863 23.1586 18.3053 22.7196 18.0169 22.106M20.0021 23.1586V24.2112" stroke="#F8F8F8" stroke-width="1.5" stroke-linecap="round"/>
<path d="M21.5789 10.0007H20C15.2863 10.0007 12.9284 10.0007 11.4642 11.466C10 12.9313 10 15.287 10 19.9997C10 24.7123 10 27.0713 11.4642 28.5365C12.9284 29.9997 15.2853 29.9997 20 29.9997C24.7137 29.9997 27.0716 29.9997 28.5358 28.5365C30 27.0713 30 24.7155 30 19.9997V18.4207" stroke="#F8F8F8" stroke-width="1.5" stroke-linecap="round"/>
<path d="M24.7368 15.2628L29.1326 10.8638M30 14.7133L29.8758 11.4586C29.8758 10.6912 29.4179 10.2133 28.5831 10.1533L25.2947 9.99963" stroke="#F8F8F8" stroke-width="1.5" stroke-linecap="round" stroke-linejoin="round"/>
</svg>
