<svg width="72" height="72" viewBox="0 0 72 72" fill="none" xmlns="http://www.w3.org/2000/svg">
<path fill-rule="evenodd" clip-rule="evenodd" d="M36.48 20.1038C36.3296 20.0354 36.1664 20 36.0012 20C35.836 20 35.6727 20.0354 35.5223 20.1038L20.6801 26.8512C20.4776 26.9428 20.3058 27.0907 20.1852 27.2774C20.0645 27.464 20.0003 27.6815 20 27.9037V42.7472C20.0001 42.9551 20.0562 43.1591 20.1624 43.3378C20.2687 43.5165 20.4212 43.6633 20.6038 43.7627L35.4483 51.8587C35.6182 51.9514 35.8087 52 36.0023 52C36.1959 52 36.3864 51.9514 36.5563 51.8587L40.6278 49.6381V39.4695H42.9411V48.3751L45.2544 47.1144V37.1563H47.5677V45.8514L51.3985 43.7627C51.5811 43.6628 51.7333 43.5155 51.8391 43.3364C51.945 43.1573 52.0006 42.9529 52 42.7449V27.9037C52.0001 27.682 51.9365 27.4649 51.8168 27.2783C51.697 27.0917 51.5261 26.9435 51.3245 26.8512L36.48 20.1038ZM22.3133 42.0602V29.701L34.8445 35.396V48.8932L22.3133 42.0602ZM36.0012 33.3789L48.0535 27.9037L36.0012 22.4285L23.9534 27.9037L36.0012 33.3789Z" fill="#5F86FB"/>
</svg>
