<svg width="92" height="92" viewBox="0 0 92 92" fill="none" xmlns="http://www.w3.org/2000/svg">
<rect x="0.5" y="0.5" width="91" height="91" rx="19.5" fill="#5F86FB"/>
<rect x="0.5" y="0.5" width="91" height="91" rx="19.5" stroke="#F8F8F8"/>
<path d="M59.7143 48.2857H48.2857V59.7143C48.2857 60.3205 48.0449 60.9019 47.6162 61.3305C47.1876 61.7592 46.6062 62 46 62C45.3938 62 44.8124 61.7592 44.3838 61.3305C43.9551 60.9019 43.7143 60.3205 43.7143 59.7143V48.2857H32.2857C31.6795 48.2857 31.0981 48.0449 30.6695 47.6162C30.2408 47.1876 30 46.6062 30 46C30 45.3938 30.2408 44.8124 30.6695 44.3838C31.0981 43.9551 31.6795 43.7143 32.2857 43.7143H43.7143V32.2857C43.7143 31.6795 43.9551 31.0981 44.3838 30.6695C44.8124 30.2408 45.3938 30 46 30C46.6062 30 47.1876 30.2408 47.6162 30.6695C48.0449 31.0981 48.2857 31.6795 48.2857 32.2857V43.7143H59.7143C60.3205 43.7143 60.9019 43.9551 61.3305 44.3838C61.7592 44.8124 62 45.3938 62 46C62 46.6062 61.7592 47.1876 61.3305 47.6162C60.9019 48.0449 60.3205 48.2857 59.7143 48.2857Z" fill="#F8F8F8"/>
</svg>
