<svg xmlns="http://www.w3.org/2000/svg" width="260" height="140" viewBox="0 0 260 140" role="img" aria-labelledby="title desc">
  <title id="title">Network Switch Icon</title>
  <desc id="desc">A simple Cisco Packet Tracer inspired network switch icon.</desc>
  <defs>
    <linearGradient id="bodyGrad" x1="0" y1="0" x2="0" y2="1">
      <stop offset="0%" stop-color="#eef4fa"/>
      <stop offset="52%" stop-color="#cbd7e3"/>
      <stop offset="100%" stop-color="#9eacba"/>
    </linearGradient>
    <linearGradient id="topGrad" x1="0" y1="0" x2="1" y2="1">
      <stop offset="0%" stop-color="#ffffff"/>
      <stop offset="100%" stop-color="#b7c2cf"/>
    </linearGradient>
    <filter id="softShadow" x="-20%" y="-20%" width="140%" height="140%">
      <feDropShadow dx="0" dy="4" stdDeviation="3" flood-color="#000000" flood-opacity="0.25"/>
    </filter>
  </defs>

  <g filter="url(#softShadow)">
    <path d="M35 58 L226 58 L246 88 L56 88 Z" fill="url(#topGrad)" stroke="#526271" stroke-width="3" stroke-linejoin="round"/>
    <path d="M56 88 L246 88 L226 126 L35 126 Z" fill="url(#bodyGrad)" stroke="#526271" stroke-width="3" stroke-linejoin="round"/>

    <g fill="#eef8ff" stroke="#34495e" stroke-width="2">
      <rect x="66" y="96" width="17" height="13" rx="2"/>
      <rect x="89" y="96" width="17" height="13" rx="2"/>
      <rect x="112" y="96" width="17" height="13" rx="2"/>
      <rect x="135" y="96" width="17" height="13" rx="2"/>
      <rect x="158" y="96" width="17" height="13" rx="2"/>
      <rect x="181" y="96" width="17" height="13" rx="2"/>
      <rect x="204" y="96" width="17" height="13" rx="2"/>
    </g>

    <g fill="#6fd36f" stroke="#286b2a" stroke-width="1.4">
      <circle cx="75" cy="74" r="4"/>
      <circle cx="94" cy="74" r="4"/>
      <circle cx="113" cy="74" r="4"/>
      <circle cx="132" cy="74" r="4"/>
    </g>
    <g fill="#ffd166" stroke="#8f6b00" stroke-width="1.4">
      <circle cx="157" cy="74" r="4"/>
      <circle cx="176" cy="74" r="4"/>
    </g>

    <path d="M69 112 H219" stroke="#68788a" stroke-width="2" opacity="0.45"/>
  </g>
</svg>
